<svg xmlns="http://www.w3.org/2000/svg" xml:space="preserve" width="1500" height="1500" data-id="lg_dtMQbvI8FhLaDvWFaX" data-version="1" viewBox="0 0 1500 1500"><path fill="#fff" stroke="transparent" d="M0 0h1500v1500H0z"/><g data-padding="20"><path d="M750 1211.838H322.493c2.138-177.416-5.343-272.536 110.083-314.218 104.74-39.544 166.728-81.226 166.728-81.226l80.157 254.366 10.688 34.2 36.338-102.6C645.261 888 733.97 882.656 750 882.656c14.963 0 104.74 5.344 21.375 120.771l36.338 102.602 10.688-34.2 81.226-254.367s63.058 40.613 166.728 81.226c115.427 40.613 107.945 135.733 111.152 313.149ZM554.416 313.005c106.876-106.877 280.017-106.877 385.824 0 106.877 106.877 106.877 280.017 0 385.825-89.776 89.776-226.578 103.67-331.317 42.75h-1.069c-41.682 30.995-85.501 36.338-116.495 32.063-10.688-1.068-12.826-14.962-3.207-20.306 27.788-13.894 45.957-41.682 56.645-63.058l-3.206-2.137c-94.63-109.11-89.028-272.749 12.825-375.137m274.673 192.378c0 19.238 16.031 35.27 35.269 35.27s35.27-16.032 35.27-35.27-16.032-35.27-35.27-35.27-35.27 16.032-35.27 35.27m-117.564 0c0 19.238 16.032 35.27 35.27 35.27s35.269-16.032 35.269-35.27-16.032-35.27-35.27-35.27-35.269 16.032-35.269 35.27m-117.564 0c0 19.238 16.032 35.27 35.27 35.27s35.269-16.032 35.269-35.27-16.032-35.27-35.27-35.27-35.269 16.032-35.269 35.27"/><path fill="transparent" stroke="transparent" stroke-width="1.824" d="M304.08 295.413h891.84v937.434H304.08z"/></g></svg>